<svg width="44" height="44" viewBox="0 0 44 44" fill="none" xmlns="http://www.w3.org/2000/svg">
<path d="M24.0022 34.7073C23.811 34.5196 23.7035 34.2652 23.7035 33.9999C23.7035 33.7346 23.811 33.4802 24.0022 33.2925L34.5131 22.989L7.02131 22.989C6.75044 22.989 6.49067 22.8835 6.29914 22.6958C6.1076 22.508 6.00001 22.2534 6.00001 21.988C6.00001 21.7225 6.1076 21.4679 6.29914 21.2801C6.49067 21.0924 6.75044 20.987 7.02131 20.987L34.5131 20.987L24.0022 10.6834C23.8218 10.4936 23.7236 10.2427 23.7283 9.98334C23.7329 9.72401 23.8401 9.47659 24.0272 9.29319C24.2144 9.10979 24.4668 9.00473 24.7314 9.00016C24.996 8.99558 25.252 9.09184 25.4457 9.26866L37.7013 21.2806C37.8926 21.4683 38 21.7227 38 21.988C38 22.2532 37.8926 22.5076 37.7013 22.6953L25.4457 34.7073C25.2542 34.8947 24.9946 35 24.7239 35C24.4533 35 24.1937 34.8947 24.0022 34.7073Z" fill="#0E92FA"/>
</svg>
