<svg width="14" height="13" viewBox="0 0 14 13" fill="none" xmlns="http://www.w3.org/2000/svg">
<path d="M6.49612 0.336808C6.65117 -0.112306 7.28633 -0.112306 7.44138 0.336809L8.76083 4.1588C8.83043 4.36038 9.02021 4.49564 9.23346 4.49564H13.4357C13.9274 4.49564 14.1238 5.13084 13.7179 5.40837L10.3714 7.69673C10.1855 7.82388 10.1075 8.05969 10.181 8.27262L11.4714 12.0104C11.6286 12.4657 11.1142 12.8582 10.7166 12.5863L7.25098 10.2165C7.08082 10.1001 6.85668 10.1001 6.68652 10.2165L3.22095 12.5863C2.82328 12.8582 2.30888 12.4657 2.46609 12.0104L3.75646 8.27262C3.82998 8.05969 3.75201 7.82388 3.56606 7.69673L0.219554 5.40837C-0.1863 5.13084 0.0101129 4.49564 0.501781 4.49564H4.70404C4.91729 4.49564 5.10708 4.36038 5.17667 4.1588L6.49612 0.336808Z" fill="#EBB376"/>
</svg>
