<svg width="20" height="20" viewBox="0 0 20 20" fill="none" xmlns="http://www.w3.org/2000/svg">
<g clip-path="url(#clip0_1543_21352)">
<path d="M10 10C11.1046 10 12 9.10457 12 8C12 6.89543 11.1046 6 10 6C8.89543 6 8 6.89543 8 8C8 9.10457 8.89543 10 10 10Z" stroke="#0E92FA" stroke-width="1.5" stroke-linecap="round" stroke-linejoin="round"/>
<path d="M17 7.92308C17 14.1538 10 19 10 19C10 19 3 14.1538 3 7.92308C3 6.08696 3.7375 4.32605 5.05025 3.02772C6.36301 1.72939 8.14348 1 10 1C11.8565 1 13.637 1.72939 14.9497 3.02772C16.2625 4.32605 17 6.08696 17 7.92308Z" stroke="#0E92FA" stroke-width="1.5" stroke-linecap="round" stroke-linejoin="round"/>
</g>
<defs>
<clipPath id="clip0_1543_21352">
<rect width="20" height="20" fill="white"/>
</clipPath>
</defs>
</svg>
