<svg width="24" height="24" viewBox="0 0 24 24" fill="none" xmlns="http://www.w3.org/2000/svg">
<g clip-path="url(#clip0_1543_7781)">
<path d="M11.0026 12.6654C12.4754 12.6654 13.6693 11.4715 13.6693 9.9987C13.6693 8.52594 12.4754 7.33203 11.0026 7.33203C9.52984 7.33203 8.33594 8.52594 8.33594 9.9987C8.33594 11.4715 9.52984 12.6654 11.0026 12.6654Z" stroke="#666666" stroke-width="1.5" stroke-linecap="round" stroke-linejoin="round"/>
<path d="M19 9.69231C19 16.6154 11 22 11 22C11 22 3 16.6154 3 9.69231C3 7.65218 3.84285 5.69561 5.34315 4.25302C6.84344 2.81044 8.87827 2 11 2C13.1217 2 15.1566 2.81044 16.6569 4.25302C18.1571 5.69561 19 7.65218 19 9.69231Z" stroke="#666666" stroke-width="1.5" stroke-linecap="round" stroke-linejoin="round"/>
</g>
<defs>
<clipPath id="clip0_1543_7781">
<rect width="24" height="24" fill="white"/>
</clipPath>
</defs>
</svg>
