<svg width="46" height="46" viewBox="0 0 46 46" fill="none" xmlns="http://www.w3.org/2000/svg">
<g clip-path="url(#clip0_1543_7288)">
<rect width="46" height="46" rx="6" fill="#E2EEF8"/>
<path d="M23 18C18.0294 18 14 22.0294 14 27C14 31.9706 18.0294 36 23 36C27.9706 36 32 31.9706 32 27C32 22.0294 27.9706 18 23 18Z" stroke="#0E92FA" stroke-width="2" stroke-linecap="round" stroke-linejoin="round"/>
<path d="M23 22C20.2386 22 18 24.2386 18 27C18 29.7614 20.2386 32 23 32C25.7614 32 28 29.7614 28 27C28 24.2386 25.7614 22 23 22Z" stroke="#0E92FA" stroke-width="2" stroke-linecap="round" stroke-linejoin="round"/>
<path d="M18.3333 18L16.56 11.92C16.28 10.96 17 10 18 10L23.0015 10M23.0015 10L27.9999 10C28.9999 10 29.7199 10.96 29.4399 11.9201L27.6667 17.9988M23.0015 10L23.0015 15.002" stroke="#0E92FA" stroke-width="2" stroke-linecap="round" stroke-linejoin="round"/>
</g>
<defs>
<clipPath id="clip0_1543_7288">
<rect width="46" height="46" rx="6" fill="white"/>
</clipPath>
</defs>
</svg>
