<svg width="24" height="24" viewBox="0 0 24 24" fill="none" xmlns="http://www.w3.org/2000/svg">
<rect width="24" height="24" rx="2" fill="#0E92FA"/>
<path d="M11.7441 18.16C10.9548 18.16 10.1815 18.048 9.42413 17.824C8.67746 17.5893 8.04813 17.2693 7.53613 16.864L8.41613 15.248C8.82146 15.5787 9.31213 15.8453 9.88813 16.048C10.4748 16.2507 11.0828 16.352 11.7121 16.352C12.4481 16.352 13.0241 16.1973 13.4401 15.888C13.8668 15.5787 14.0801 15.1627 14.0801 14.64C14.0801 14.288 13.9895 13.9787 13.8081 13.712C13.6375 13.4453 13.3281 13.2427 12.8801 13.104C12.4428 12.9653 11.8401 12.896 11.0721 12.896H8.36813L8.94413 6.8H15.5201V8.544H9.71213L10.8001 7.552L10.3681 12.112L9.28013 11.136H11.5361C12.6455 11.136 13.5361 11.2853 14.2081 11.584C14.8908 11.872 15.3868 12.2773 15.6961 12.8C16.0161 13.312 16.1761 13.8987 16.1761 14.56C16.1761 15.2107 16.0161 15.808 15.6961 16.352C15.3761 16.896 14.8855 17.3333 14.2241 17.664C13.5735 17.9947 12.7468 18.16 11.7441 18.16Z" fill="white"/>
</svg>
