<svg width="24" height="24" viewBox="0 0 24 24" fill="none" xmlns="http://www.w3.org/2000/svg">
<rect width="24" height="24" rx="2" fill="#0E92FA"/>
<path d="M7.90375 18V16.608L12.3518 12.384C12.7251 12.032 13.0024 11.7227 13.1838 11.456C13.3651 11.1893 13.4824 10.944 13.5358 10.72C13.5998 10.4853 13.6318 10.2667 13.6318 10.064C13.6318 9.552 13.4558 9.15733 13.1038 8.88C12.7518 8.592 12.2344 8.448 11.5518 8.448C11.0078 8.448 10.5118 8.544 10.0638 8.736C9.62642 8.928 9.24775 9.22133 8.92775 9.616L7.47175 8.496C7.90908 7.90933 8.49575 7.456 9.23175 7.136C9.97842 6.80533 10.8104 6.64 11.7278 6.64C12.5384 6.64 13.2424 6.77333 13.8398 7.04C14.4478 7.296 14.9118 7.664 15.2318 8.144C15.5624 8.624 15.7278 9.19467 15.7278 9.856C15.7278 10.2187 15.6798 10.5813 15.5838 10.944C15.4878 11.296 15.3064 11.6693 15.0398 12.064C14.7731 12.4587 14.3838 12.9013 13.8718 13.392L10.0478 17.024L9.61575 16.24H16.1597V18H7.90375Z" fill="white"/>
</svg>
