<svg width="24" height="24" viewBox="0 0 24 24" fill="none" xmlns="http://www.w3.org/2000/svg">
<rect width="24" height="24" rx="2" fill="#0E92FA"/>
<path d="M11.5677 18.16C10.7784 18.16 10.0051 18.048 9.24775 17.824C8.50108 17.5893 7.87175 17.2693 7.35975 16.864L8.25575 15.248C8.66108 15.5787 9.15175 15.8453 9.72775 16.048C10.3038 16.2507 10.9064 16.352 11.5358 16.352C12.2824 16.352 12.8638 16.2027 13.2798 15.904C13.6958 15.5947 13.9038 15.1787 13.9038 14.656C13.9038 14.144 13.7118 13.7387 13.3278 13.44C12.9438 13.1413 12.3251 12.992 11.4718 12.992H10.4478V11.568L13.6478 7.76L13.9198 8.544H7.90375V6.8H15.5358V8.192L12.3358 12L11.2478 11.36H11.8718C13.2478 11.36 14.2771 11.6693 14.9598 12.288C15.6531 12.896 15.9998 13.68 15.9998 14.64C15.9998 15.2693 15.8398 15.8507 15.5198 16.384C15.1998 16.9173 14.7091 17.3493 14.0478 17.68C13.3971 18 12.5704 18.16 11.5677 18.16Z" fill="white"/>
</svg>
