<svg width="46" height="46" viewBox="0 0 46 46" fill="none" xmlns="http://www.w3.org/2000/svg">
<g clip-path="url(#clip0_1591_14648)">
<path d="M0 6C0 2.68629 2.68629 0 6 0H40C43.3137 0 46 2.68629 46 6V40C46 43.3137 43.3137 46 40 46H6C2.68629 46 0 43.3137 0 40V6Z" fill="#E2EEF8"/>
<path d="M32 20.9375C33.3586 20.9363 34.6987 21.2973 35.9138 21.9916C37.129 22.686 38.1857 23.6947 39 24.9375" stroke="#0E92FA" stroke-width="2" stroke-linecap="round" stroke-linejoin="round"/>
<path d="M7 24.9375C7.81433 23.6947 8.87104 22.686 10.0862 21.9916C11.3013 21.2973 12.6414 20.9363 14 20.9375" stroke="#0E92FA" stroke-width="2" stroke-linecap="round" stroke-linejoin="round"/>
<path d="M23 29.9375C26.3137 29.9375 29 27.4751 29 24.4375C29 21.3999 26.3137 18.9375 23 18.9375C19.6863 18.9375 17 21.3999 17 24.4375C17 27.4751 19.6863 29.9375 23 29.9375Z" stroke="#0E92FA" stroke-width="2" stroke-linecap="round" stroke-linejoin="round"/>
<path d="M15 34.9375C15.8204 33.4148 16.9899 32.1526 18.393 31.2757C19.796 30.3987 21.384 29.9375 23 29.9375C24.616 29.9375 26.204 30.3987 27.607 31.2757C29.0101 32.1526 30.1796 33.4148 31 34.9375" stroke="#0E92FA" stroke-width="2" stroke-linecap="round" stroke-linejoin="round"/>
<path d="M28 15.3125C28.2138 14.4977 28.6555 13.7582 29.2749 13.178C29.8943 12.5978 30.6666 12.2001 31.5041 12.0302C32.3416 11.8603 33.2108 11.9249 34.0129 12.2167C34.815 12.5085 35.5178 13.0158 36.0416 13.6809C36.5655 14.3461 36.8893 15.1425 36.9763 15.9797C37.0633 16.8169 36.91 17.6613 36.5338 18.4171C36.1576 19.1728 35.5736 19.8096 34.8482 20.2551C34.1227 20.7007 33.2848 20.9371 32.4297 20.9375" stroke="#0E92FA" stroke-width="2" stroke-linecap="round" stroke-linejoin="round"/>
<path d="M13.5703 20.9375C12.7152 20.9371 11.8773 20.7007 11.1518 20.2551C10.4264 19.8096 9.84238 19.1728 9.4662 18.4171C9.09003 17.6613 8.93673 16.8169 9.02373 15.9797C9.11072 15.1425 9.43452 14.3461 9.95835 13.6809C10.4822 13.0158 11.185 12.5085 11.9871 12.2167C12.7892 11.9249 13.6584 11.8603 14.4959 12.0302C15.3334 12.2001 16.1057 12.5978 16.7251 13.178C17.3445 13.7582 17.7862 14.4977 18 15.3125" stroke="#0E92FA" stroke-width="2" stroke-linecap="round" stroke-linejoin="round"/>
</g>
<defs>
<clipPath id="clip0_1591_14648">
<path d="M0 6C0 2.68629 2.68629 0 6 0H40C43.3137 0 46 2.68629 46 6V40C46 43.3137 43.3137 46 40 46H6C2.68629 46 0 43.3137 0 40V6Z" fill="white"/>
</clipPath>
</defs>
</svg>
