<svg width="24" height="24" viewBox="0 0 24 24" fill="none" xmlns="http://www.w3.org/2000/svg">
<rect width="24" height="24" rx="12" fill="white"/>
<path d="M14.1126 13.3916C14.1848 13.3436 14.2679 13.3143 14.3544 13.3064C14.4408 13.2985 14.5278 13.3124 14.6076 13.3466L17.6833 14.7247C17.787 14.769 17.8735 14.8457 17.9299 14.9433C17.9863 15.0409 18.0097 15.1541 17.9964 15.266C17.895 16.0232 17.5221 16.7179 16.947 17.2208C16.3719 17.7237 15.6337 18.0006 14.8698 18C12.5174 18 10.2613 17.0655 8.59789 15.4021C6.93449 13.7387 6 11.4826 6 9.13024C5.99942 8.36626 6.27632 7.62808 6.77921 7.05297C7.2821 6.47786 7.97675 6.10497 8.73397 6.00364C8.84591 5.99035 8.95915 6.01366 9.05673 6.07009C9.15431 6.12652 9.23099 6.21304 9.27529 6.31669L10.6534 9.39502C10.6872 9.47409 10.701 9.5603 10.6935 9.64598C10.686 9.73166 10.6574 9.81415 10.6103 9.88612L9.21659 11.5433C9.16716 11.6179 9.13792 11.7041 9.13175 11.7934C9.12557 11.8826 9.14267 11.972 9.18138 12.0527C9.72074 13.1568 10.8621 14.2845 11.9695 14.8186C12.0506 14.8572 12.1404 14.8739 12.2299 14.8671C12.3195 14.8604 12.4057 14.8304 12.4801 14.7801L14.1126 13.3916Z" fill="#0E92FA"/>
</svg>
