<svg width="20" height="20" viewBox="0 0 20 20" fill="none" xmlns="http://www.w3.org/2000/svg">
<g clip-path="url(#clip0_1543_21339)">
<path d="M12.6407 11.7395C12.731 11.6794 12.8349 11.6428 12.943 11.633C13.051 11.6232 13.1598 11.6405 13.2595 11.6833L17.1041 13.4059C17.2337 13.4613 17.3418 13.5571 17.4124 13.6791C17.4829 13.8011 17.5121 13.9426 17.4954 14.0825C17.3688 15.0291 16.9027 15.8974 16.1838 16.526C15.4649 17.1546 14.5422 17.5007 13.5872 17.5C10.6467 17.5 7.82662 16.3319 5.74737 14.2526C3.66811 12.1734 2.5 9.3533 2.5 6.41279C2.49927 5.45783 2.8454 4.5351 3.47401 3.81621C4.10263 3.09733 4.97094 2.63121 5.91747 2.50455C6.05739 2.48793 6.19893 2.51707 6.32091 2.58761C6.44289 2.65815 6.53874 2.7663 6.59411 2.89587L8.31671 6.74378C8.35903 6.84261 8.37627 6.95037 8.36688 7.05747C8.35749 7.16457 8.32177 7.26769 8.2629 7.35765L6.52074 9.42917C6.45895 9.52242 6.4224 9.6301 6.41469 9.74171C6.40697 9.85331 6.42834 9.965 6.47672 10.0659C7.15092 11.4461 8.57758 12.8556 9.96185 13.5233C10.0633 13.5714 10.1755 13.5923 10.2874 13.5839C10.3993 13.5755 10.5071 13.538 10.6002 13.4752L12.6407 11.7395Z" stroke="#0E92FA" stroke-width="1.5" stroke-linecap="round" stroke-linejoin="round"/>
</g>
<defs>
<clipPath id="clip0_1543_21339">
<rect width="20" height="20" fill="white"/>
</clipPath>
</defs>
</svg>
