<svg width="24" height="24" viewBox="0 0 24 24" fill="none" xmlns="http://www.w3.org/2000/svg">
<g clip-path="url(#clip0_1543_7766)">
<path d="M14.1689 14.0875C14.2772 14.0153 14.4019 13.9714 14.5316 13.9596C14.6612 13.9478 14.7918 13.9686 14.9114 14.02L19.525 16.0871C19.6804 16.1535 19.8102 16.2685 19.8949 16.4149C19.9795 16.5613 20.0145 16.7311 19.9945 16.899C19.8425 18.0349 19.2832 19.0768 18.4205 19.8312C17.5579 20.5855 16.4506 21.0009 15.3046 21C11.776 21 8.39195 19.5983 5.89684 17.1032C3.40174 14.6081 2 11.224 2 7.69535C1.99912 6.5494 2.41448 5.44212 3.16882 4.57946C3.92315 3.71679 4.96513 3.15745 6.10096 3.00547C6.26887 2.98552 6.43872 3.02049 6.58509 3.10514C6.73146 3.18978 6.84648 3.31956 6.91294 3.47504L8.98005 8.09254C9.03084 8.21113 9.05152 8.34045 9.04025 8.46897C9.02899 8.59749 8.98613 8.72123 8.91548 8.82918L6.82489 11.315C6.75073 11.4269 6.70688 11.5561 6.69762 11.69C6.68836 11.824 6.71401 11.958 6.77206 12.079C7.5811 13.7353 9.2931 15.4267 10.9542 16.2279C11.0759 16.2857 11.2105 16.3108 11.3449 16.3007C11.4792 16.2906 11.6086 16.2456 11.7202 16.1702L14.1689 14.0875Z" stroke="#666666" stroke-width="1.5" stroke-linecap="round" stroke-linejoin="round"/>
</g>
<defs>
<clipPath id="clip0_1543_7766">
<rect width="24" height="24" fill="white"/>
</clipPath>
</defs>
</svg>
