<svg width="46" height="46" viewBox="0 0 46 46" fill="none" xmlns="http://www.w3.org/2000/svg">
<g clip-path="url(#clip0_1543_7334)">
<rect width="46" height="46" rx="6" fill="#E2EEF8"/>
<rect x="11" y="10" width="10" height="10" rx="5" stroke="#0E92FA" stroke-width="2"/>
<path d="M12 26C10.9391 26 9.92172 25.6839 9.17157 25.1213C8.42143 24.5587 8 23.7956 8 23" stroke="#0E92FA" stroke-width="2" stroke-linecap="round" stroke-linejoin="round"/>
<path d="M25.4615 14.6908L30.8542 11L29.8927 15.6157C31.4611 16.6044 33.5431 18.6019 34.2885 20.255C34.4203 20.5485 34.5367 20.8481 34.637 21.1528H35.0769C35.587 21.1528 36.0761 21.3473 36.4367 21.6936C36.7974 22.0398 37 22.5094 37 22.9991V26.6917C37 27.1814 36.7974 27.651 36.4367 27.9972C36.0761 28.3435 35.587 28.538 35.0769 28.538H34.1154L31.9399 34.3873C31.8732 34.5667 31.7503 34.7219 31.588 34.8316C31.4257 34.9413 31.2321 35.0001 31.0337 35H29.5048C29.3064 35.0001 29.1127 34.9413 28.9505 34.8316C28.7882 34.7219 28.6653 34.5667 28.5986 34.3873L28.1406 33.1537H19.8978L19.4399 34.3873C19.3732 34.5667 19.2503 34.7219 19.088 34.8316C18.9257 34.9413 18.7321 35.0001 18.5337 35H17.0048C16.8064 35.0001 16.6127 34.9413 16.4505 34.8316C16.2882 34.7219 16.1653 34.5667 16.0986 34.3873L14.524 30.1535C12.8983 28.454 11.9973 26.2298 12 23.9222C12 21.4739 13.0131 19.1259 14.8163 17.3946C16.6195 15.6634 19.0652 14.6908 21.6154 14.6908H25.4615Z" fill="#E2EEF8" stroke="#0E92FA" stroke-width="2" stroke-linecap="round" stroke-linejoin="round"/>
<path d="M29.5 25C30.3284 25 31 24.3284 31 23.5C31 22.6716 30.3284 22 29.5 22C28.6716 22 28 22.6716 28 23.5C28 24.3284 28.6716 25 29.5 25Z" fill="#0E92FA"/>
<path d="M22 18H27" stroke="#0E92FA" stroke-width="2" stroke-linecap="round" stroke-linejoin="round"/>
</g>
<defs>
<clipPath id="clip0_1543_7334">
<rect width="46" height="46" rx="6" fill="white"/>
</clipPath>
</defs>
</svg>
