<svg width="46" height="46" viewBox="0 0 46 46" fill="none" xmlns="http://www.w3.org/2000/svg">
<g clip-path="url(#clip0_1591_16242)">
<rect width="46" height="46" rx="6" fill="#E2EEF8"/>
<path d="M23.0027 29.338L28.7924 32.8719C28.9427 32.9624 29.1165 33.0067 29.2921 32.9992C29.4677 32.9916 29.637 32.9326 29.7788 32.8295C29.9206 32.7265 30.0284 32.584 30.0886 32.4201C30.1488 32.2563 30.1588 32.0783 30.1171 31.9089L28.5427 25.3146L33.6955 20.9037C33.8269 20.7892 33.9216 20.6391 33.9679 20.4717C34.0143 20.3044 34.0103 20.1273 33.9564 19.9622C33.9025 19.7971 33.8011 19.6513 33.6646 19.5428C33.5282 19.4343 33.3627 19.3678 33.1887 19.3515L26.4266 18.8054L23.8217 12.5462C23.7553 12.3847 23.6419 12.2465 23.4961 12.1492C23.3502 12.0519 23.1785 12 23.0027 12C22.827 12 22.6553 12.0519 22.5094 12.1492C22.3636 12.2465 22.2502 12.3847 22.1838 12.5462L19.5789 18.8054L12.8168 19.3515C12.6416 19.3668 12.4747 19.433 12.3372 19.5418C12.1996 19.6507 12.0974 19.7973 12.0433 19.9635C11.9893 20.1297 11.9857 20.308 12.0331 20.4761C12.0806 20.6443 12.1769 20.7948 12.31 20.909L17.4628 25.3199L15.8884 31.9089C15.8467 32.0783 15.8567 32.2563 15.9169 32.4201C15.9771 32.584 16.0849 32.7265 16.2267 32.8295C16.3685 32.9326 16.5378 32.9916 16.7134 32.9992C16.889 33.0067 17.0628 32.9624 17.2131 32.8719L23.0027 29.338Z" stroke="#0E92FA" stroke-width="2" stroke-linecap="round" stroke-linejoin="round"/>
</g>
<defs>
<clipPath id="clip0_1591_16242">
<rect width="46" height="46" rx="6" fill="white"/>
</clipPath>
</defs>
</svg>
