<svg width="26" height="26" viewBox="0 0 26 26" fill="none" xmlns="http://www.w3.org/2000/svg">
<circle cx="13" cy="13" r="13" fill="#2F89CE"/>
<path d="M6.72796 12.7799L9.71672 13.8609L10.8818 17.4971C10.9325 17.7428 11.2364 17.792 11.439 17.6445L13.1107 16.3178C13.2627 16.1704 13.516 16.1704 13.7186 16.3178L16.7074 18.4307C16.91 18.5782 17.2139 18.4799 17.2646 18.2342L19.4935 7.91529C19.5441 7.6696 19.2909 7.42391 19.0376 7.52219L6.72796 12.1411C6.42401 12.2394 6.42401 12.6816 6.72796 12.7799ZM10.7299 13.3204L16.606 9.83165C16.7073 9.78252 16.8087 9.92993 16.7074 9.97907L11.895 14.3523C11.743 14.4997 11.591 14.6963 11.591 14.942L11.439 16.1213C11.439 16.2687 11.1858 16.3178 11.1351 16.1213L10.5272 13.9592C10.3752 13.7135 10.4766 13.4187 10.7299 13.3204Z" fill="white"/>
</svg>
