<svg width="26" height="26" viewBox="0 0 26 26" fill="none" xmlns="http://www.w3.org/2000/svg">
<circle cx="13" cy="13" r="13" fill="#7C509A"/>
<path d="M16.562 6.8323C14.2024 6.38923 11.7522 6.38923 9.39267 6.8323C8.34904 7.05383 7.03316 8.29439 6.80628 9.26913C6.39791 11.1743 6.39791 13.1238 6.80628 15.0289C7.07853 16.0036 8.39441 17.2442 9.39267 17.4657C9.43804 17.4657 9.48342 17.5101 9.48342 17.5544V20.3456C9.48342 20.4786 9.66492 20.5672 9.75567 20.4342L11.1169 19.0608C11.1169 19.0608 12.2059 17.9531 12.3874 17.7759C12.3874 17.7759 12.4328 17.7316 12.4782 17.7316C13.8394 17.7759 15.2461 17.643 16.6073 17.4214C17.651 17.1999 18.9668 15.9593 19.1937 14.9846C19.6021 13.0794 19.6021 11.13 19.1937 9.22482C18.9215 8.29439 17.6056 7.05383 16.562 6.8323ZM16.6073 15.1618C16.3805 15.6049 16.1082 15.9593 15.6545 16.1809C15.5183 16.2252 15.3822 16.2695 15.2461 16.3138C15.0646 16.2695 14.9284 16.2252 14.7923 16.1809C13.3403 15.6049 11.9791 14.8074 10.8901 13.6554C10.3002 12.9908 9.80105 12.2376 9.39267 11.4401C9.21117 11.0414 9.02967 10.6869 8.89354 10.2882C8.75742 9.93372 8.98429 9.57927 9.21117 9.31343C9.43804 9.0476 9.7103 8.87037 10.0279 8.73745C10.2548 8.60454 10.4817 8.69315 10.6632 8.87037C11.0262 9.31343 11.3892 9.75649 11.6614 10.2439C11.8429 10.554 11.7976 10.9085 11.4799 11.13C11.3892 11.1743 11.3438 11.2186 11.2531 11.3072C11.2077 11.3515 11.1169 11.3958 11.0716 11.4844C10.9808 11.6173 10.9808 11.7503 11.0262 11.8832C11.3892 12.9022 12.0698 13.6997 13.1134 14.1428C13.2949 14.2314 13.4311 14.2757 13.6579 14.2757C13.9756 14.2314 14.1117 13.877 14.3386 13.6997C14.5654 13.5225 14.8377 13.5225 15.1099 13.6554C15.3368 13.7883 15.5637 13.9656 15.8359 14.1428C16.0628 14.32 16.2897 14.4529 16.5166 14.6302C16.6527 14.7188 16.6981 14.9403 16.6073 15.1618ZM14.7016 11.8389C14.6108 11.8389 14.6562 11.8389 14.7016 11.8389C14.5201 11.8389 14.4747 11.7503 14.4293 11.6173C14.4293 11.5287 14.4293 11.3958 14.3839 11.3072C14.3386 11.13 14.2478 10.9528 14.0663 10.8198C13.9756 10.7755 13.8848 10.7312 13.7941 10.6869C13.6579 10.6426 13.5672 10.6426 13.4311 10.6426C13.2949 10.5983 13.2496 10.5097 13.2496 10.3768C13.2496 10.2882 13.3857 10.1996 13.4764 10.1996C14.2024 10.2439 14.7469 10.6426 14.8377 11.4844C14.8377 11.5287 14.8377 11.6173 14.8377 11.6617C14.8377 11.7503 14.7923 11.8389 14.7016 11.8389ZM14.2478 9.88941C14.0209 9.8008 13.7941 9.71219 13.5218 9.66788C13.4311 9.66788 13.2949 9.62358 13.2042 9.62358C13.0681 9.62358 12.9773 9.53496 13.0227 9.40205C13.0227 9.26913 13.1134 9.18052 13.2496 9.22482C13.7033 9.26913 14.1117 9.35774 14.5201 9.53496C15.3368 9.93372 15.7906 10.5983 15.9267 11.4844C15.9267 11.5287 15.9267 11.573 15.9267 11.6173C15.9267 11.706 15.9267 11.7946 15.9267 11.9275C15.9267 11.9718 15.9267 12.0161 15.9267 12.0604C15.8813 12.2376 15.5637 12.2819 15.5183 12.0604C15.5183 12.0161 15.4729 11.9275 15.4729 11.8832C15.4729 11.4844 15.3822 11.0857 15.2007 10.7312C14.9284 10.3325 14.6108 10.0666 14.2478 9.88941ZM16.6981 12.5478C16.562 12.5478 16.4712 12.4149 16.4712 12.2819C16.4712 12.0161 16.4258 11.7503 16.3805 11.4844C16.199 10.0666 15.0192 8.91468 13.6126 8.69315C13.3857 8.64884 13.1588 8.64884 12.9773 8.60454C12.8412 8.60454 12.6597 8.60454 12.6143 8.42731C12.5689 8.29439 12.7051 8.16148 12.8412 8.16148C12.8866 8.16148 12.9319 8.16148 12.9319 8.16148C13.0227 8.16148 14.7923 8.20578 12.9319 8.16148C14.8377 8.20578 16.4258 9.44635 16.7435 11.3072C16.7888 11.6173 16.8342 11.9275 16.8342 12.2819C16.925 12.4149 16.8342 12.5478 16.6981 12.5478Z" fill="white"/>
</svg>
