<svg width="46" height="46" viewBox="0 0 46 46" fill="none" xmlns="http://www.w3.org/2000/svg">
<g clip-path="url(#clip0_1543_7314)">
<rect width="46" height="46" rx="6" fill="#E2EEF8"/>
<path d="M11 14V30C11 30.5304 11.2199 31.0391 11.6113 31.4142C12.0026 31.7893 12.5335 32 13.087 32H33.9565C34.2333 32 34.4987 31.8946 34.6944 31.7071C34.8901 31.5196 35 31.2652 35 31V17C35 16.7348 34.8901 16.4804 34.6944 16.2929M11 14C11 14.5304 11.2199 15.0391 11.6113 15.4142C12.0026 15.7893 12.5335 16 13.087 16H33.9565C34.2333 16 34.4987 16.1054 34.6944 16.2929M11 14C11 13.4696 11.2199 12.9609 11.6113 12.5858C12.0026 12.2107 12.5335 12 13.087 12H29.4911C30.3409 12 31.1509 12.3604 31.7198 12.9918L34.6944 16.2929" stroke="#0E92FA" stroke-width="2" stroke-linecap="round" stroke-linejoin="round"/>
<path d="M30 25C30.5523 25 31 24.5523 31 24C31 23.4477 30.5523 23 30 23C29.4477 23 29 23.4477 29 24C29 24.5523 29.4477 25 30 25Z" fill="#0E92FA"/>
</g>
<defs>
<clipPath id="clip0_1543_7314">
<rect width="46" height="46" rx="6" fill="white"/>
</clipPath>
</defs>
</svg>
