<svg width="26" height="26" viewBox="0 0 26 26" fill="none" xmlns="http://www.w3.org/2000/svg">
<circle cx="13" cy="13" r="13" fill="#48C95F"/>
<path d="M17.5976 8.39583C16.3746 7.17708 14.7439 6.5 13.0226 6.5C9.44425 6.5 6.5453 9.38889 6.5453 12.9549C6.5453 14.0833 6.86237 15.2118 7.40592 16.1597L6.5 19.5L9.94251 18.5972C10.8937 19.0938 11.9355 19.3646 13.0226 19.3646C16.601 19.3646 19.5 16.4757 19.5 12.9097C19.4547 11.2396 18.8206 9.61458 17.5976 8.39583ZM16.1481 15.2569C16.0122 15.6181 15.378 15.9792 15.061 16.0243C14.7892 16.0694 14.4268 16.0694 14.0645 15.9792C13.838 15.8889 13.5209 15.7986 13.1585 15.6181C11.5279 14.941 10.4861 13.316 10.3955 13.1806C10.3049 13.0903 9.71603 12.3229 9.71603 11.5104C9.71603 10.6979 10.1237 10.3368 10.2596 10.1562C10.3955 9.97569 10.5767 9.97569 10.7125 9.97569C10.8031 9.97569 10.939 9.97569 11.0296 9.97569C11.1202 9.97569 11.2561 9.93056 11.392 10.2465C11.5279 10.5625 11.8449 11.375 11.8902 11.4201C11.9355 11.5104 11.9355 11.6007 11.8902 11.691C11.8449 11.7812 11.7996 11.8715 11.7091 11.9618C11.6185 12.0521 11.5279 12.1875 11.4826 12.2326C11.392 12.3229 11.3014 12.4132 11.392 12.5486C11.4826 12.7292 11.7997 13.2257 12.2979 13.6771C12.9321 14.2187 13.4303 14.3993 13.6115 14.4896C13.7927 14.5799 13.8833 14.5347 13.9739 14.4444C14.0645 14.3542 14.3815 13.9931 14.4721 13.8125C14.5627 13.6319 14.6986 13.6771 14.8345 13.7222C14.9704 13.7674 15.7857 14.1736 15.9216 14.2639C16.1028 14.3542 16.1934 14.3993 16.2387 14.4444C16.284 14.5799 16.284 14.8958 16.1481 15.2569Z" fill="white"/>
</svg>
