<svg width="46" height="46" viewBox="0 0 46 46" fill="none" xmlns="http://www.w3.org/2000/svg">
<rect width="46" height="46" rx="6" fill="#E2EEF8"/>
<path d="M20.2563 22.877C19.5237 21.5512 19.2198 20.0311 19.3862 18.5256C19.5527 17.0201 20.1813 15.6031 21.1858 14.4694C22.1903 13.3357 23.5213 12.541 24.9958 12.1944C26.4704 11.8479 28.016 11.9666 29.4203 12.5342L24.8383 17.5L25.4867 20.5172L28.5039 21.1656L33.4697 16.5836C34.0373 17.9879 34.156 19.5335 33.8095 21.0081C33.463 22.4826 32.6682 23.8136 31.5345 24.8181C30.4008 25.8226 28.9838 26.4512 27.4783 26.6177C25.9728 26.7841 24.4527 26.4802 23.1269 25.7476L16.7052 33.1934C16.1888 33.7098 15.4883 34 14.7579 34C14.0275 34 13.327 33.7098 12.8105 33.1934C12.2941 32.6769 12.0039 31.9764 12.0039 31.246C12.0039 30.5156 12.2941 29.8151 12.8105 29.2987L20.2563 22.877Z" stroke="#0E92FA" stroke-width="2" stroke-linecap="round" stroke-linejoin="round"/>
</svg>
